<svg width="24" height="24" viewBox="0 0 24 24" fill="none" xmlns="http://www.w3.org/2000/svg">
<path fill-rule="evenodd" clip-rule="evenodd" d="M12.0003 3.07919L9.78746 5.36869C9.55194 5.61237 9.22755 5.74999 8.88865 5.74999H5.75026V8.88837C5.75026 9.22728 5.61265 9.55166 5.36896 9.78718L3.07946 12L5.36896 14.2128C5.61265 14.4483 5.75026 14.7727 5.75026 15.1116V18.25H8.88865C9.22755 18.25 9.55193 18.3876 9.78746 18.6313L12.0003 20.9208L14.2131 18.6313C14.4486 18.3876 14.773 18.25 15.1119 18.25H18.2503V15.1116C18.2503 14.7727 18.3879 14.4483 18.6316 14.2128L20.9211 12L18.6316 9.78719C18.3879 9.55167 18.2503 9.22729 18.2503 8.88838V5.74999H15.1119C14.773 5.74999 14.4486 5.61237 14.2131 5.36869L12.0003 3.07919ZM11.1014 1.85075C11.5928 1.34235 12.4077 1.34235 12.8991 1.85075L15.2179 4.24999H18.5003C19.1906 4.24999 19.7503 4.80963 19.7503 5.49999V8.78232L22.1495 11.1012C22.6579 11.5925 22.6579 12.4074 22.1495 12.8988L19.7503 15.2176V18.5C19.7503 19.1903 19.1906 19.75 18.5003 19.75H15.2179L12.8991 22.1492C12.4077 22.6576 11.5928 22.6576 11.1014 22.1492L8.78259 19.75H5.50026C4.8099 19.75 4.25026 19.1903 4.25026 18.5V15.2177L1.85103 12.8988C1.34263 12.4074 1.34263 11.5925 1.85103 11.1012L4.25026 8.78232V5.49999C4.25026 4.80963 4.80991 4.24999 5.50026 4.24999H8.78259L11.1014 1.85075Z" fill="white"/>
<path fill-rule="evenodd" clip-rule="evenodd" d="M7.25026 12C7.25026 9.37663 9.37691 7.24999 12.0003 7.24999C14.6236 7.24999 16.7503 9.37663 16.7503 12C16.7503 14.6233 14.6236 16.75 12.0003 16.75C9.37691 16.75 7.25026 14.6233 7.25026 12ZM12.0003 8.74999C10.2053 8.74999 8.75026 10.2051 8.75026 12C8.75026 13.7949 10.2053 15.25 12.0003 15.25C13.7952 15.25 15.2503 13.7949 15.2503 12C15.2503 10.2051 13.7952 8.74999 12.0003 8.74999Z" fill="white"/>
</svg>
