<svg width="557" height="345" viewBox="0 0 557 345" fill="none" xmlns="http://www.w3.org/2000/svg">
<rect width="557" height="345" rx="7" fill="#262931"/>
<path d="M27.6345 46V35.664H27.3945L25.2185 39.648H23.8105L26.4825 34.8H28.9305V46H27.6345ZM35.01 46.224C33.7407 46.224 32.7273 45.8507 31.97 45.104C31.2233 44.3467 30.85 43.216 30.85 41.712V39.088C30.85 37.5947 31.2233 36.4693 31.97 35.712C32.7273 34.9547 33.7407 34.576 35.01 34.576C36.29 34.576 37.3033 34.9547 38.05 35.712C38.8073 36.4693 39.186 37.5947 39.186 39.088V41.712C39.186 43.216 38.8073 44.3467 38.05 45.104C37.3033 45.8507 36.29 46.224 35.01 46.224ZM35.01 45.056C35.97 45.056 36.69 44.768 37.17 44.192C37.65 43.616 37.89 42.8107 37.89 41.776V39.008C37.89 37.9733 37.6447 37.1733 37.154 36.608C36.6633 36.032 35.9487 35.744 35.01 35.744C34.0713 35.744 33.3567 36.032 32.866 36.608C32.386 37.184 32.146 37.984 32.146 39.008V41.776C32.146 42.8213 32.386 43.632 32.866 44.208C33.346 44.7733 34.0607 45.056 35.01 45.056ZM44.94 46.224C43.6707 46.224 42.6573 45.8507 41.9 45.104C41.1533 44.3467 40.78 43.216 40.78 41.712V39.088C40.78 37.5947 41.1533 36.4693 41.9 35.712C42.6573 34.9547 43.6707 34.576 44.94 34.576C46.22 34.576 47.2333 34.9547 47.98 35.712C48.7373 36.4693 49.116 37.5947 49.116 39.088V41.712C49.116 43.216 48.7373 44.3467 47.98 45.104C47.2333 45.8507 46.22 46.224 44.94 46.224ZM44.94 45.056C45.9 45.056 46.62 44.768 47.1 44.192C47.58 43.616 47.82 42.8107 47.82 41.776V39.008C47.82 37.9733 47.5747 37.1733 47.084 36.608C46.5933 36.032 45.8787 35.744 44.94 35.744C44.0013 35.744 43.2867 36.032 42.796 36.608C42.316 37.184 42.076 37.984 42.076 39.008V41.776C42.076 42.8213 42.316 43.632 42.796 44.208C43.276 44.7733 43.9907 45.056 44.94 45.056ZM54.87 46.224C53.6007 46.224 52.5873 45.8507 51.83 45.104C51.0833 44.3467 50.71 43.216 50.71 41.712V39.088C50.71 37.5947 51.0833 36.4693 51.83 35.712C52.5873 34.9547 53.6007 34.576 54.87 34.576C56.15 34.576 57.1633 34.9547 57.91 35.712C58.6673 36.4693 59.046 37.5947 59.046 39.088V41.712C59.046 43.216 58.6673 44.3467 57.91 45.104C57.1633 45.8507 56.15 46.224 54.87 46.224ZM54.87 45.056C55.83 45.056 56.55 44.768 57.03 44.192C57.51 43.616 57.75 42.8107 57.75 41.776V39.008C57.75 37.9733 57.5047 37.1733 57.014 36.608C56.5233 36.032 55.8087 35.744 54.87 35.744C53.9313 35.744 53.2167 36.032 52.726 36.608C52.246 37.184 52.006 37.984 52.006 39.008V41.776C52.006 42.8213 52.246 43.632 52.726 44.208C53.206 44.7733 53.9207 45.056 54.87 45.056Z" fill="white"/>
<path d="M27.1472 111.224C26.2832 111.224 25.5312 111.096 24.8912 110.84C24.2619 110.573 23.7712 110.205 23.4192 109.736C23.0779 109.256 22.9072 108.696 22.9072 108.056V107.88C22.9072 107.325 23.0246 106.867 23.2592 106.504C23.4939 106.141 23.7766 105.864 24.1072 105.672C24.4486 105.469 24.7632 105.341 25.0512 105.288V105.08C24.7632 104.995 24.4646 104.856 24.1552 104.664C23.8566 104.472 23.6059 104.211 23.4032 103.88C23.2112 103.549 23.1152 103.144 23.1152 102.664V102.488C23.1152 101.88 23.2859 101.363 23.6272 100.936C23.9792 100.499 24.4592 100.163 25.0672 99.928C25.6752 99.6933 26.3686 99.576 27.1472 99.576C27.9366 99.576 28.6299 99.6933 29.2272 99.928C29.8352 100.163 30.3099 100.499 30.6512 100.936C31.0032 101.363 31.1792 101.88 31.1792 102.488V102.664C31.1792 103.144 31.0832 103.549 30.8912 103.88C30.6992 104.211 30.4539 104.472 30.1552 104.664C29.8566 104.856 29.5579 104.995 29.2592 105.08V105.288C29.5579 105.341 29.8726 105.469 30.2032 105.672C30.5339 105.864 30.8113 106.141 31.0352 106.504C31.2699 106.867 31.3872 107.325 31.3872 107.88V108.056C31.3872 108.696 31.2166 109.256 30.8752 109.736C30.5339 110.205 30.0432 110.573 29.4032 110.84C28.7739 111.096 28.0219 111.224 27.1472 111.224ZM27.1472 110.056C28.0539 110.056 28.7686 109.88 29.2912 109.528C29.8246 109.176 30.0912 108.664 30.0912 107.992V107.864C30.0912 107.192 29.8299 106.68 29.3072 106.328C28.7846 105.976 28.0646 105.8 27.1472 105.8C26.2406 105.8 25.5259 105.976 25.0032 106.328C24.4806 106.68 24.2192 107.192 24.2192 107.864V107.992C24.2192 108.664 24.4806 109.176 25.0032 109.528C25.5366 109.88 26.2512 110.056 27.1472 110.056ZM27.1472 104.632C28.0006 104.632 28.6672 104.472 29.1472 104.152C29.6379 103.821 29.8832 103.357 29.8832 102.76V102.632C29.8832 102.024 29.6379 101.56 29.1472 101.24C28.6566 100.909 27.9899 100.744 27.1472 100.744C26.3046 100.744 25.6379 100.909 25.1472 101.24C24.6566 101.56 24.4112 102.024 24.4112 102.632V102.76C24.4112 103.357 24.6566 103.821 25.1472 104.152C25.6379 104.472 26.3046 104.632 27.1472 104.632ZM36.94 111.224C35.6707 111.224 34.6573 110.851 33.9 110.104C33.1533 109.347 32.78 108.216 32.78 106.712V104.088C32.78 102.595 33.1533 101.469 33.9 100.712C34.6573 99.9547 35.6707 99.576 36.94 99.576C38.22 99.576 39.2333 99.9547 39.98 100.712C40.7373 101.469 41.116 102.595 41.116 104.088V106.712C41.116 108.216 40.7373 109.347 39.98 110.104C39.2333 110.851 38.22 111.224 36.94 111.224ZM36.94 110.056C37.9 110.056 38.62 109.768 39.1 109.192C39.58 108.616 39.82 107.811 39.82 106.776V104.008C39.82 102.973 39.5747 102.173 39.084 101.608C38.5933 101.032 37.8787 100.744 36.94 100.744C36.0013 100.744 35.2867 101.032 34.796 101.608C34.316 102.184 34.076 102.984 34.076 104.008V106.776C34.076 107.821 34.316 108.632 34.796 109.208C35.276 109.773 35.9907 110.056 36.94 110.056ZM46.87 111.224C45.6007 111.224 44.5873 110.851 43.83 110.104C43.0833 109.347 42.71 108.216 42.71 106.712V104.088C42.71 102.595 43.0833 101.469 43.83 100.712C44.5873 99.9547 45.6007 99.576 46.87 99.576C48.15 99.576 49.1633 99.9547 49.91 100.712C50.6673 101.469 51.046 102.595 51.046 104.088V106.712C51.046 108.216 50.6673 109.347 49.91 110.104C49.1633 110.851 48.15 111.224 46.87 111.224ZM46.87 110.056C47.83 110.056 48.55 109.768 49.03 109.192C49.51 108.616 49.75 107.811 49.75 106.776V104.008C49.75 102.973 49.5047 102.173 49.014 101.608C48.5233 101.032 47.8087 100.744 46.87 100.744C45.9313 100.744 45.2167 101.032 44.726 101.608C44.246 102.184 44.006 102.984 44.006 104.008V106.776C44.006 107.821 44.246 108.632 44.726 109.208C45.206 109.773 45.9207 110.056 46.87 110.056Z" fill="white"/>
<path d="M27.3031 176.224C26.5351 176.224 25.8471 176.075 25.2391 175.776C24.6418 175.467 24.1671 175.029 23.8151 174.464C23.4738 173.899 23.3031 173.227 23.3031 172.448V168.544C23.3031 167.701 23.4685 166.987 23.7991 166.4C24.1298 165.813 24.5938 165.365 25.1911 165.056C25.7991 164.736 26.5191 164.576 27.3511 164.576C28.1725 164.576 28.8711 164.725 29.4471 165.024C30.0338 165.312 30.4765 165.712 30.7751 166.224C31.0845 166.725 31.2391 167.307 31.2391 167.968H29.9271C29.9271 167.307 29.7138 166.773 29.2871 166.368C28.8605 165.952 28.2151 165.744 27.3511 165.744C26.4765 165.744 25.7991 165.984 25.3191 166.464C24.8391 166.933 24.5991 167.584 24.5991 168.416V169.968H24.8231C25.0151 169.648 25.3351 169.355 25.7831 169.088C26.2311 168.811 26.8551 168.672 27.6551 168.672C28.3271 168.672 28.9405 168.821 29.4951 169.12C30.0498 169.419 30.4925 169.84 30.8231 170.384C31.1538 170.928 31.3191 171.573 31.3191 172.32V172.512C31.3191 173.269 31.1431 173.925 30.7911 174.48C30.4498 175.035 29.9751 175.467 29.3671 175.776C28.7591 176.075 28.0711 176.224 27.3031 176.224ZM27.3031 175.056C28.1138 175.056 28.7698 174.827 29.2711 174.368C29.7725 173.909 30.0231 173.285 30.0231 172.496V172.368C30.0231 171.835 29.9058 171.376 29.6711 170.992C29.4471 170.608 29.1325 170.309 28.7271 170.096C28.3218 169.872 27.8471 169.76 27.3031 169.76C26.7698 169.76 26.3005 169.872 25.8951 170.096C25.4898 170.309 25.1698 170.608 24.9351 170.992C24.7111 171.376 24.5991 171.835 24.5991 172.368V172.496C24.5991 173.285 24.8498 173.909 25.3511 174.368C25.8525 174.827 26.5031 175.056 27.3031 175.056ZM36.94 176.224C35.6707 176.224 34.6573 175.851 33.9 175.104C33.1533 174.347 32.78 173.216 32.78 171.712V169.088C32.78 167.595 33.1533 166.469 33.9 165.712C34.6573 164.955 35.6707 164.576 36.94 164.576C38.22 164.576 39.2333 164.955 39.98 165.712C40.7373 166.469 41.116 167.595 41.116 169.088V171.712C41.116 173.216 40.7373 174.347 39.98 175.104C39.2333 175.851 38.22 176.224 36.94 176.224ZM36.94 175.056C37.9 175.056 38.62 174.768 39.1 174.192C39.58 173.616 39.82 172.811 39.82 171.776V169.008C39.82 167.973 39.5747 167.173 39.084 166.608C38.5933 166.032 37.8787 165.744 36.94 165.744C36.0013 165.744 35.2867 166.032 34.796 166.608C34.316 167.184 34.076 167.984 34.076 169.008V171.776C34.076 172.821 34.316 173.632 34.796 174.208C35.276 174.773 35.9907 175.056 36.94 175.056ZM46.87 176.224C45.6007 176.224 44.5873 175.851 43.83 175.104C43.0833 174.347 42.71 173.216 42.71 171.712V169.088C42.71 167.595 43.0833 166.469 43.83 165.712C44.5873 164.955 45.6007 164.576 46.87 164.576C48.15 164.576 49.1633 164.955 49.91 165.712C50.6673 166.469 51.046 167.595 51.046 169.088V171.712C51.046 173.216 50.6673 174.347 49.91 175.104C49.1633 175.851 48.15 176.224 46.87 176.224ZM46.87 175.056C47.83 175.056 48.55 174.768 49.03 174.192C49.51 173.616 49.75 172.811 49.75 171.776V169.008C49.75 167.973 49.5047 167.173 49.014 166.608C48.5233 166.032 47.8087 165.744 46.87 165.744C45.9313 165.744 45.2167 166.032 44.726 166.608C44.246 167.184 44.006 167.984 44.006 169.008V171.776C44.006 172.821 44.246 173.632 44.726 174.208C45.206 174.773 45.9207 175.056 46.87 175.056Z" fill="white"/>
<path d="M28.492 241V238.712H22.652V237.176L27.356 229.8H29.788V237.544H31.708V238.712H29.788V241H28.492ZM23.948 237.544H28.492V230.584H28.268L23.948 237.352V237.544ZM36.94 241.224C35.6707 241.224 34.6573 240.851 33.9 240.104C33.1533 239.347 32.78 238.216 32.78 236.712V234.088C32.78 232.595 33.1533 231.469 33.9 230.712C34.6573 229.955 35.6707 229.576 36.94 229.576C38.22 229.576 39.2333 229.955 39.98 230.712C40.7373 231.469 41.116 232.595 41.116 234.088V236.712C41.116 238.216 40.7373 239.347 39.98 240.104C39.2333 240.851 38.22 241.224 36.94 241.224ZM36.94 240.056C37.9 240.056 38.62 239.768 39.1 239.192C39.58 238.616 39.82 237.811 39.82 236.776V234.008C39.82 232.973 39.5747 232.173 39.084 231.608C38.5933 231.032 37.8787 230.744 36.94 230.744C36.0013 230.744 35.2867 231.032 34.796 231.608C34.316 232.184 34.076 232.984 34.076 234.008V236.776C34.076 237.821 34.316 238.632 34.796 239.208C35.276 239.773 35.9907 240.056 36.94 240.056ZM46.87 241.224C45.6007 241.224 44.5873 240.851 43.83 240.104C43.0833 239.347 42.71 238.216 42.71 236.712V234.088C42.71 232.595 43.0833 231.469 43.83 230.712C44.5873 229.955 45.6007 229.576 46.87 229.576C48.15 229.576 49.1633 229.955 49.91 230.712C50.6673 231.469 51.046 232.595 51.046 234.088V236.712C51.046 238.216 50.6673 239.347 49.91 240.104C49.1633 240.851 48.15 241.224 46.87 241.224ZM46.87 240.056C47.83 240.056 48.55 239.768 49.03 239.192C49.51 238.616 49.75 237.811 49.75 236.776V234.008C49.75 232.973 49.5047 232.173 49.014 231.608C48.5233 231.032 47.8087 230.744 46.87 230.744C45.9313 230.744 45.2167 231.032 44.726 231.608C44.246 232.184 44.006 232.984 44.006 234.008V236.776C44.006 237.821 44.246 238.632 44.726 239.208C45.206 239.773 45.9207 240.056 46.87 240.056Z" fill="white"/>
<path d="M23.3474 306V304.832C23.3474 304.032 23.486 303.392 23.7634 302.912C24.0514 302.432 24.446 302.048 24.9474 301.76C25.4594 301.461 26.0674 301.205 26.7714 300.992L27.6514 300.72C28.1314 300.571 28.5527 300.389 28.9154 300.176C29.278 299.952 29.5607 299.675 29.7634 299.344C29.966 299.003 30.0674 298.587 30.0674 298.096V298.032C30.0674 297.328 29.822 296.773 29.3314 296.368C28.8407 295.952 28.2114 295.744 27.4434 295.744C26.6327 295.744 25.9714 295.963 25.4594 296.4C24.9474 296.827 24.6914 297.477 24.6914 298.352V298.576H23.4114V298.368C23.4114 297.557 23.5874 296.869 23.9394 296.304C24.2914 295.739 24.7714 295.312 25.3794 295.024C25.9874 294.725 26.6754 294.576 27.4434 294.576C28.2114 294.576 28.8887 294.72 29.4754 295.008C30.0727 295.296 30.5367 295.696 30.8674 296.208C31.198 296.72 31.3634 297.317 31.3634 298V298.144C31.3634 298.869 31.2194 299.472 30.9314 299.952C30.6434 300.421 30.2434 300.805 29.7314 301.104C29.23 301.403 28.638 301.659 27.9554 301.872L27.0914 302.144C26.5474 302.315 26.094 302.496 25.7314 302.688C25.3794 302.869 25.1127 303.104 24.9314 303.392C24.75 303.68 24.6594 304.069 24.6594 304.56V304.832H31.2674V306H23.3474ZM36.94 306.224C35.6707 306.224 34.6573 305.851 33.9 305.104C33.1533 304.347 32.78 303.216 32.78 301.712V299.088C32.78 297.595 33.1533 296.469 33.9 295.712C34.6573 294.955 35.6707 294.576 36.94 294.576C38.22 294.576 39.2333 294.955 39.98 295.712C40.7373 296.469 41.116 297.595 41.116 299.088V301.712C41.116 303.216 40.7373 304.347 39.98 305.104C39.2333 305.851 38.22 306.224 36.94 306.224ZM36.94 305.056C37.9 305.056 38.62 304.768 39.1 304.192C39.58 303.616 39.82 302.811 39.82 301.776V299.008C39.82 297.973 39.5747 297.173 39.084 296.608C38.5933 296.032 37.8787 295.744 36.94 295.744C36.0013 295.744 35.2867 296.032 34.796 296.608C34.316 297.184 34.076 297.984 34.076 299.008V301.776C34.076 302.821 34.316 303.632 34.796 304.208C35.276 304.773 35.9907 305.056 36.94 305.056ZM46.87 306.224C45.6007 306.224 44.5873 305.851 43.83 305.104C43.0833 304.347 42.71 303.216 42.71 301.712V299.088C42.71 297.595 43.0833 296.469 43.83 295.712C44.5873 294.955 45.6007 294.576 46.87 294.576C48.15 294.576 49.1633 294.955 49.91 295.712C50.6673 296.469 51.046 297.595 51.046 299.088V301.712C51.046 303.216 50.6673 304.347 49.91 305.104C49.1633 305.851 48.15 306.224 46.87 306.224ZM46.87 305.056C47.83 305.056 48.55 304.768 49.03 304.192C49.51 303.616 49.75 302.811 49.75 301.776V299.008C49.75 297.973 49.5047 297.173 49.014 296.608C48.5233 296.032 47.8087 295.744 46.87 295.744C45.9313 295.744 45.2167 296.032 44.726 296.608C44.246 297.184 44.006 297.984 44.006 299.008V301.776C44.006 302.821 44.246 303.632 44.726 304.208C45.206 304.773 45.9207 305.056 46.87 305.056Z" fill="white"/>
<path d="M82 277C111.833 279.333 181.7 268 222.5 204C273.5 124 359 205.5 405 187.5C451 169.5 522 200.5 531 253.5" stroke="#53CBFF"/>
<circle cx="132" cy="161" r="4" fill="#8EA4F0"/>
<circle cx="148" cy="265" r="4" fill="#53CBFF"/>
<circle cx="266" cy="170" r="4" fill="#53CBFF"/>
<circle cx="387" cy="190" r="4" fill="#53CBFF"/>
<circle cx="500" cy="204" r="4" fill="#53CBFF"/>
<circle cx="419" cy="51" r="4" fill="#8EA4F0"/>
<circle cx="351" cy="122" r="4" fill="#8EA4F0"/>
<circle cx="483" cy="243" r="4" fill="#8EA4F0"/>
<circle cx="270" cy="281" r="4" fill="#8EA4F0"/>
<circle cx="531" cy="253" r="4" fill="#53CBFF"/>
<path d="M82 277C89.3333 219.5 115.2 119.6 160 180C216 255.5 276.5 346 313 221C349.5 96 425 -27 459.5 111C494 249 451 252 531 253.5" stroke="#8EA4F0"/>
</svg>
