<svg width="24" height="24" viewBox="0 0 24 24" fill="none" xmlns="http://www.w3.org/2000/svg">
<path fill-rule="evenodd" clip-rule="evenodd" d="M13.5579 5.534C13.1389 5.13186 12.5806 4.90731 11.9999 4.90731C11.4191 4.90731 10.8609 5.13186 10.4419 5.534L5.8159 9.974C5.7025 10.0828 5.62622 10.2245 5.5979 10.379C5.04388 13.4006 5.00297 16.4939 5.4769 19.529L5.5889 20.25H8.5659V14.039C8.5659 13.8401 8.64492 13.6493 8.78557 13.5087C8.92622 13.368 9.11699 13.289 9.3159 13.289H14.6839C14.8828 13.289 15.0736 13.368 15.2142 13.5087C15.3549 13.6493 15.4339 13.8401 15.4339 14.039V20.25H18.4109L18.5229 19.53C18.9975 16.4943 18.9569 13.4003 18.4029 10.378C18.3741 10.2237 18.2975 10.0824 18.1839 9.974L13.5579 5.534ZM9.4039 4.452C10.1022 3.78217 11.0323 3.40816 11.9999 3.40816C12.9675 3.40816 13.8976 3.78217 14.5959 4.452L19.2229 8.892C19.5629 9.218 19.7929 9.644 19.8779 10.108C20.4619 13.2957 20.5048 16.559 20.0049 19.761L19.8249 20.918C19.7889 21.1499 19.6711 21.3612 19.4928 21.5138C19.3145 21.6664 19.0876 21.7502 18.8529 21.75H14.6839C14.485 21.75 14.2942 21.671 14.1536 21.5303C14.0129 21.3897 13.9339 21.1989 13.9339 21V14.789H10.0659V21C10.0659 21.1989 9.98688 21.3897 9.84623 21.5303C9.70557 21.671 9.51481 21.75 9.3159 21.75H5.1469C4.91224 21.7502 4.68527 21.6664 4.50701 21.5138C4.32874 21.3612 4.21094 21.1499 4.1749 20.918L3.9949 19.761C3.49495 16.559 3.53788 13.2957 4.1219 10.108C4.2069 9.644 4.4369 9.218 4.7769 8.891L9.4039 4.452Z" fill="white"/>
</svg>
