<svg width="28" height="28" viewBox="0 0 28 28" fill="none" xmlns="http://www.w3.org/2000/svg">
<path fill-rule="evenodd" clip-rule="evenodd" d="M2.87017 19.6222C2.61166 19.3542 2.55115 18.9518 2.71939 18.6196L3.53781 17.0033C5.47479 13.178 9.39823 10.7669 13.686 10.7669H14.0884C14.1177 10.1295 14.1556 9.49235 14.202 8.85566L14.2811 7.76992C14.3455 6.88696 15.33 6.39338 16.076 6.87006C18.5233 8.43382 20.6508 10.4488 22.3452 12.8075L22.8773 13.5482C23.0965 13.8533 23.0965 14.2642 22.8773 14.5692L22.3452 15.31C20.6508 17.6687 18.5233 19.6836 16.076 21.2474C15.33 21.7241 14.3455 21.2305 14.2811 20.3475L14.202 19.2618C14.1466 18.5014 14.1033 17.7404 14.0722 16.9791C11.5641 16.9067 9.05901 17.4129 6.75675 18.4755L3.86669 19.8093C3.52855 19.9654 3.12868 19.8903 2.87017 19.6222ZM5.45812 17.1474L6.0234 16.8865C8.8364 15.5882 11.9228 15.0401 14.9855 15.2754C15.4315 15.3096 15.7799 15.6748 15.7931 16.1219C15.8228 17.1269 15.8742 18.1313 15.9474 19.1346L15.9537 19.2214C17.8711 17.8662 19.5514 16.1997 20.9239 14.289L21.0893 14.0587L20.9239 13.8285C19.5514 11.9178 17.8711 10.2513 15.9537 8.89603L15.9474 8.98289C15.8821 9.87844 15.8341 10.7749 15.8034 11.6719C15.7873 12.1432 15.4005 12.5169 14.9289 12.5169L13.686 12.5169C10.3058 12.5169 7.19315 14.2878 5.45812 17.1474Z" fill="#89A7FF"/>
</svg>
